<svg xmlns="http://www.w3.org/2000/svg" width="512" height="512" viewBox="0 0 1254 836" preserveAspectRatio="xMidYMid slice" role="img" aria-label="Precision Cab logo">
<rect width="1254" height="836" rx="128" fill="#3B553F"/>
<style>path:nth-of-type(1),path:nth-of-type(2){display:none}path:nth-of-type(3){fill:#ECE6DD}</style>
<g>
<path d="M 155.72 507.75 C155.40,398.55 155.21,386.72 153.64,379.02 C148.22,352.42 138.20,329.73 122.72,309.04 C110.56,292.78 96.74,280.28 78.59,269.14 C69.67,263.66 48.95,254.00 46.12,254.00 C45.33,254.00 45.00,247.83 45.00,233.13 L 45.00 212.26 L 48.69 211.66 C64.72,209.06 101.33,224.98 127.00,245.72 C138.18,254.76 153.72,271.25 161.26,282.10 C168.27,292.18 178.19,310.58 180.16,317.14 C181.42,321.34 182.41,321.98 183.45,319.25 C184.84,315.63 197.59,295.19 203.26,287.50 C226.91,255.47 258.11,229.94 291.87,215.02 C316.31,204.21 340.93,199.08 372.25,198.26 L 392.00 197.74 L 392.00 215.32 C392.00,241.03 389.56,257.67 382.39,280.82 C370.97,317.72 352.17,348.82 324.52,376.55 C292.03,409.13 253.23,429.48 209.50,436.87 L 199.50 438.57 L 199.24 533.28 L 198.99 628.00 L 156.06 628.00 ZM 220.72 393.91 C254.08,383.10 280.68,365.89 303.26,340.50 C324.61,316.50 339.96,285.41 346.10,253.75 C347.17,248.23 347.79,243.45 347.47,243.14 C346.65,242.32 331.63,245.55 322.39,248.54 C265.29,267.01 212.40,326.69 201.06,385.43 C199.27,394.70 198.57,397.82 199.66,398.69 C200.29,399.18 201.51,398.93 203.47,398.66 C205.93,398.32 213.69,396.18 220.72,393.91 Z" fill="rgba(59,85,63,1)"/>
<path d="M 984.74 507.25 L 984.42 386.50 L 982.18 376.71 C973.89,340.44 958.56,312.99 933.05,288.74 C917.94,274.37 897.93,261.88 877.50,254.04 C874.07,252.72 871.88,251.96 870.47,250.46 C867.89,247.70 868.00,242.40 868.00,226.39 L 868.00 205.00 L 870.25 205.01 C874.51,205.02 889.52,209.06 900.50,213.14 C938.05,227.10 971.69,253.90 993.35,287.13 C999.31,296.29 1006.58,310.39 1009.52,318.50 C1010.52,321.25 1011.65,323.87 1012.04,324.32 C1012.42,324.77 1014.55,321.85 1016.77,317.82 C1034.20,286.14 1067.58,250.49 1099.58,229.37 C1130.03,209.27 1160.20,199.08 1197.10,196.44 L 1206.69 195.75 L 1207.34 201.12 C1209.03,215.26 1207.54,241.22 1203.91,260.50 C1192.98,318.69 1152.68,375.60 1100.00,407.25 C1078.22,420.34 1058.44,428.09 1032.50,433.71 L 1028.50 434.57 L 1028.24 531.29 L 1027.99 628.00 L 985.06 628.00 ZM 1045.00 393.24 C1098.31,374.18 1140.59,332.46 1158.30,281.41 C1163.85,265.41 1168.43,243.00 1166.15,243.00 C1165.58,243.00 1160.25,244.58 1154.31,246.50 C1129.94,254.40 1104.88,270.31 1084.15,291.05 C1059.02,316.18 1042.98,340.95 1033.49,369.31 C1030.32,378.80 1026.67,396.65 1027.60,398.16 C1028.00,398.82 1034.64,396.94 1045.00,393.24 Z" fill="rgba(30,27,25,1)"/>
<path d="M 568.97 514.25 C568.96,448.70 568.54,395.27 567.99,389.63 C564.42,352.91 548.38,319.36 521.52,292.46 C505.04,275.95 490.92,266.38 467.73,256.00 L 457.96 251.62 L 458.23 230.06 L 458.50 208.50 L 466.50 208.59 C475.93,208.69 482.34,210.66 498.77,218.52 C518.07,227.74 532.99,238.24 549.87,254.49 C569.79,273.66 582.06,291.27 591.54,314.30 C593.31,318.59 595.15,322.09 595.63,322.07 C596.11,322.06 598.23,319.00 600.34,315.27 C628.65,265.36 667.63,230.33 716.31,211.06 C734.34,203.93 761.76,198.86 783.50,198.63 L 796.50 198.50 L 796.47 218.50 C796.44,240.85 795.16,252.83 790.97,269.90 C783.34,301.04 770.56,327.85 750.89,354.00 C741.45,366.54 721.71,386.68 710.29,395.41 C692.83,408.75 670.66,420.66 651.00,427.26 C641.04,430.61 619.98,435.64 613.50,436.23 L 610.50 436.50 L 610.24 532.75 L 609.99 629.00 L 589.49 629.00 L 569.00 629.00 L 568.97 514.25 ZM 633.00 392.52 C685.87,374.38 728.17,331.78 745.72,279.00 C750.68,264.06 754.42,244.00 752.24,244.00 C750.27,244.00 733.74,249.01 727.50,251.49 C686.56,267.81 649.32,303.18 627.17,346.80 C620.34,360.24 615.83,372.78 613.00,386.15 C610.14,399.74 609.91,399.08 616.75,397.47 C619.91,396.73 627.22,394.50 633.00,392.52 Z" fill="rgba(236,230,221,1)"/>
</g>
</svg>
